<svg width="481" height="203" viewBox="0 0 481 203" fill="none" xmlns="http://www.w3.org/2000/svg">
<path d="M30.5275 19.0824L139.518 2.51157C120.176 76.6616 108.15 137.672 103.441 185.543L60.0463 196.59L91.8349 41.1772C87.2937 42.0138 80.2292 43.4367 70.6422 45.4452C53.8227 124.282 44.7404 170.981 43.3947 185.544L0.000624476 196.59L30.5275 19.0824Z" fill="black"/>
<path d="M210.918 -0.000106279C228.747 -0.000125786 241.362 9.87534 248.763 29.6263C252.631 39.8364 254.566 51.0512 254.566 63.2701C254.566 74.9864 252.8 87.7074 249.268 101.433C243.044 124.866 232.28 146.458 216.974 166.209C198.305 190.312 178.542 202.364 157.686 202.364C139.688 202.364 126.906 192.488 119.337 172.737C115.636 163.029 113.787 152.15 113.787 140.098C113.787 128.214 115.636 115.326 119.336 101.433C125.56 77.8322 136.24 56.1565 151.378 36.4053C170.047 12.1351 189.894 -8.32743e-05 210.918 -0.000106279ZM201.836 62.266C192.586 62.266 183.167 69.7977 173.58 84.8624C165.842 96.7462 160.46 108.379 157.433 119.761C155.919 125.787 155.162 131.226 155.162 136.081C155.162 142.943 156.844 148.551 160.208 152.903C164.077 157.756 169.459 160.183 176.355 160.183C185.774 160.183 194.268 155.246 201.836 145.37C207.892 137.504 212.265 128.214 214.956 117.501C218.151 104.948 218.824 92.5617 216.974 80.3427C214.956 68.2913 209.91 62.2659 201.836 62.266Z" fill="black"/>
<path d="M266.921 19.0831L313.595 11.0487C305.186 43.0186 298.374 72.1432 293.16 98.422L314.1 94.1534L326.967 19.083L373.641 11.0487C355.813 79.5079 344.544 137.673 339.835 185.544L296.44 196.591L308.045 128.299C303.336 129.304 296.187 130.81 286.6 132.819C283.405 153.407 281.134 170.981 279.789 185.544L236.394 196.591L266.921 19.0831Z" fill="black"/>
<path d="M373.392 19.8383L418.3 11.0507C412.75 31.1365 408.797 47.1216 406.443 59.0054C404.256 70.7223 402.995 79.5099 402.658 85.3684C402.322 95.7458 408.041 99.0096 419.814 95.1596L434.699 19.085L480.617 11.0507C463.124 78.1705 451.688 136.335 446.306 185.546L403.92 196.593C407.116 173.996 410.732 152.153 414.769 131.063C381.634 139.432 364.562 127.381 363.553 94.9086C363.553 87.879 364.31 78.5892 365.824 67.0399L373.392 19.8383Z" fill="black"/>
</svg>
